<svg viewBox="0 0 700 220" xmlns="http://www.w3.org/2000/svg">
  <defs>
    <marker id="arrow-mid" markerWidth="10" markerHeight="10" refX="9" refY="3" orient="auto">
      <polygon points="0 0, 10 3, 0 6" fill="#8b949e"/>
    </marker>
  </defs>
  
  <text x="350" y="25" text-anchor="middle" fill="#c9d1d9" font-size="18" font-weight="700">ASP.NET Core Middleware Pipeline</text>
  
  <rect x="20" y="60" width="100" height="60" rx="8" fill="#58a6ff"/>
  <text x="70" y="95" text-anchor="middle" fill="white" font-size="14" font-weight="700">Request</text>
  
  <rect x="140" y="60" width="100" height="60" rx="8" fill="#d29922"/>
  <text x="190" y="95" text-anchor="middle" fill="white" font-size="13" font-weight="700">Logging</text>
  
  <rect x="260" y="60" width="100" height="60" rx="8" fill="#f85149"/>
  <text x="310" y="95" text-anchor="middle" fill="white" font-size="13" font-weight="700">Auth</text>
  
  <rect x="380" y="60" width="100" height="60" rx="8" fill="#a371f7"/>
  <text x="430" y="95" text-anchor="middle" fill="white" font-size="13" font-weight="700">Routing</text>
  
  <rect x="500" y="60" width="100" height="60" rx="8" fill="#3fb950"/>
  <text x="550" y="95" text-anchor="middle" fill="white" font-size="13" font-weight="700">Endpoint</text>
  
  <path d="M 550 140 L 550 155 L 70 155 L 70 140" stroke="#8b949e" stroke-width="2" fill="none" stroke-dasharray="5,3" marker-end="url(#arrow-mid)"/>
  <text x="310" y="175" text-anchor="middle" fill="#c9d1d9" font-size="12">Response flows back through middleware</text>
  
  <line x1="120" y1="90" x2="140" y2="90" stroke="#8b949e" stroke-width="2" marker-end="url(#arrow-mid)"/>
  <text x="130" y="85" text-anchor="middle" fill="#c9d1d9" font-size="9">1</text>
  
  <line x1="240" y1="90" x2="260" y2="90" stroke="#8b949e" stroke-width="2" marker-end="url(#arrow-mid)"/>
  <text x="250" y="85" text-anchor="middle" fill="#c9d1d9" font-size="9">2</text>
  
  <line x1="360" y1="90" x2="380" y2="90" stroke="#8b949e" stroke-width="2" marker-end="url(#arrow-mid)"/>
  <text x="370" y="85" text-anchor="middle" fill="#c9d1d9" font-size="9">3</text>
  
  <line x1="480" y1="90" x2="500" y2="90" stroke="#8b949e" stroke-width="2" marker-end="url(#arrow-mid)"/>
  <text x="490" y="85" text-anchor="middle" fill="#c9d1d9" font-size="9">4</text>
  
  <text x="350" y="205" text-anchor="middle" fill="#c9d1d9" font-size="11">Order matters! Register middleware in the order you want them to execute.</text>
</svg>
