<svg viewBox="0 0 600 280" xmlns="http://www.w3.org/2000/svg">
  <style>
    .text { fill: #c9d1d9; }
    .arrow { stroke: #8b949e; }
    @media (prefers-color-scheme: light) {
      .text { fill: #24292f; }
      .arrow { stroke: #57606a; }
    }
  </style>
  <defs>
    <marker id="arrowhead-mvc" markerWidth="10" markerHeight="10" refX="9" refY="3" orient="auto">
      <polygon points="0 0, 10 3, 0 6" fill="#8b949e"/>
    </marker>
    <marker id="arrowhead-mvc-light" markerWidth="10" markerHeight="10" refX="9" refY="3" orient="auto">
      <polygon points="0 0, 10 3, 0 6" fill="#57606a"/>
    </marker>
  </defs>
  
  <text x="300" y="30" text-anchor="middle" class="text" font-size="18" font-weight="700">MVC Pattern</text>
  
  <rect x="50" y="70" width="140" height="120" rx="12" fill="#58a6ff"/>
  <text x="120" y="110" text-anchor="middle" fill="white" font-size="16" font-weight="700">Controller</text>
  <text x="120" y="140" text-anchor="middle" fill="white" font-size="12">Handles requests</text>
  <text x="120" y="158" text-anchor="middle" fill="white" font-size="12">Coordinates flow</text>
  <text x="120" y="176" text-anchor="middle" fill="white" font-size="11" opacity="0.8">UsersController.cs</text>
  
  <rect x="230" y="70" width="140" height="120" rx="12" fill="#a371f7"/>
  <text x="300" y="110" text-anchor="middle" fill="white" font-size="16" font-weight="700">Model</text>
  <text x="300" y="140" text-anchor="middle" fill="white" font-size="12">Business logic</text>
  <text x="300" y="158" text-anchor="middle" fill="white" font-size="12">Data access</text>
  <text x="300" y="176" text-anchor="middle" fill="white" font-size="11" opacity="0.8">User.cs, DbContext</text>
  
  <rect x="410" y="70" width="140" height="120" rx="12" fill="#3fb950"/>
  <text x="480" y="110" text-anchor="middle" fill="white" font-size="16" font-weight="700">View</text>
  <text x="480" y="140" text-anchor="middle" fill="white" font-size="12">HTML output</text>
  <text x="480" y="158" text-anchor="middle" fill="white" font-size="12">User interface</text>
  <text x="480" y="176" text-anchor="middle" fill="white" font-size="11" opacity="0.8">Index.cshtml</text>
  
  <line x1="190" y1="120" x2="230" y2="120" class="arrow" stroke-width="2" marker-end="url(#arrowhead-mvc)"/>
  <text x="210" y="115" text-anchor="middle" class="text" font-size="10">Uses data</text>
  
  <line x1="370" y1="120" x2="410" y2="120" class="arrow" stroke-width="2" marker-end="url(#arrowhead-mvc)"/>
  <text x="390" y="115" text-anchor="middle" class="text" font-size="10">Renders</text>
  
  <path d="M 300 190 L 300 220 L 480 220 L 480 190" class="arrow" stroke-width="2" fill="none" marker-end="url(#arrowhead-mvc)"/>
  <text x="390" y="235" text-anchor="middle" class="text" font-size="10">Data for display</text>
</svg>
